# xmcd
#
# Track frame offsets:
#	150
#	9592
#	17825
#	28140
#	37097
#	47110
#	57362
#	69697
#	79285
#	88822
#	99697
#	109867
#	121310
#	131925
#	141842
#	152725
#	162110
#	173937
#	184825
#	194720
#	205612
#	216297
#	227860
#	239270
#	251200
#	264245
#	272777
#	283287
#	293822
#	305737
#	316330
#	326457
#	338300
#
# Disc length: 4645 seconds
#
# Revision: 0
# Processed by: cddbd v1.5PL3 Copyright (c) Steve Scherf et al.
# Submitted via: audiograbber 1.82.02
#
DISCID=fd122321
DTITLE=Wynn Stewart - Wishful Thinking [CD2]
DYEAR=1900
DGENRE=Country
TTITLE0=Never Out Of My Heart (1988)
TTITLE1=Rain, Rain
TTITLE2=Never Out Of My Heart (2000)
TTITLE3=Above and Beyond (the Call of Love)
TTITLE4=Open Up My Heart (basic track)
TTITLE5=Open Up My Heart
TTITLE6=Wishful Thinking (1959)
TTITLE7=Wishful Thinking (1988)
TTITLE8=Uncle Tom Got Caught
TTITLE9=We'll Never Love Again (w Jan Howard)
TTITLE10=Wrong Company (w Jan Howard)
TTITLE11=Heartaches for a Dime
TTITLE12=Playboy
TTITLE13=Searching for Another You
TTITLE14=Big City
TTITLE15=If You See My Baby
TTITLE16=I'd Rather Have America
TTITLE17=Big, Big Love
TTITLE18=One More Memory
TTITLE19=Wall to Wall Heartaches
TTITLE20=Girl in White
TTITLE21=Donna on my Mind
TTITLE22=Falling for You
TTITLE23=Judy (with overdub)
TTITLE24=I Don't Feel at Home
TTITLE25=I Done Done It
TTITLE26=Loversville
TTITLE27=Three Cheers for the Loser
TTITLE28=Judy (w/o overdub)
TTITLE29=Playboy (1988)
TTITLE30=If You See My Baby
TTITLE31=I'd Rather Have America (1965)
TTITLE32=If You See My Baby
EXTD=
EXTT0=
EXTT1=
EXTT2=
EXTT3=
EXTT4=
EXTT5=
EXTT6=
EXTT7=
EXTT8=
EXTT9=
EXTT10=
EXTT11=
EXTT12=
EXTT13=
EXTT14=
EXTT15=
EXTT16=
EXTT17=
EXTT18=
EXTT19=
EXTT20=
EXTT21=
EXTT22=
EXTT23=
EXTT24=
EXTT25=
EXTT26=
EXTT27=
EXTT28=
EXTT29=
EXTT30=
EXTT31=
EXTT32=
PLAYORDER=
